# xmcd CD database file
#
# Track frame offsets:
#	150
#	16792
#	34240
#	47505
#	65422
#	92100
#	109037
#	129252
#	150577
#	171537
#	187467
#
# Disc length: 2707 seconds
#
# Revision: 5
# Processed by: cddbd v1.5.1PL0 Copyright (c) Steve Scherf et al.
# Submitted via: CDex 1.51
#
DISCID=900a910b
DTITLE=Maria McKee - Maria McKee
DYEAR=1989
DGENRE=Pop/Folk
TTITLE0=I've Forgotten What It Was in You (That Put the Need in Me)
TTITLE1=To Miss Someone
TTITLE2=Am I the Only One (Who's Ever Felt This Way?)
TTITLE3=Nobody's Child
TTITLE4=Panic Beach
TTITLE5=Can't Pull the Wool down (over the Little Lamb's Eyes)
TTITLE6=More Than a Heart Can Hold
TTITLE7=This Property Is Condemned
TTITLE8=Breathe
TTITLE9=Has He Got A Friend For Me?
TTITLE10=Drinkin' in My Sunday Dress
EXTD=YEAR: 1989
EXTT0=
EXTT1=
EXTT2=
EXTT3=
EXTT4=
EXTT5=
EXTT6=
EXTT7=
EXTT8=
EXTT9=
EXTT10=
PLAYORDER=
